<svg id="Layer_1" xmlns="http://www.w3.org/2000/svg" viewBox="0 0 612 224"><style>.st0,.st1{fill:none;stroke:#231f20;stroke-width:3;stroke-miterlimit:10}.st1{stroke:#061816;stroke-width:5}</style><path d="M29.5 106.5c0-10.5-.3-19-.7-26.8h13.4l.7 14.1h.3c6.1-10 15.8-16 29.2-16 19.9 0 34.8 16.8 34.8 41.8 0 29.6-18 44.2-37.4 44.2-10.9 0-20.4-4.8-25.3-12.9h-.3v44.7H29.5v-89.1zm14.8 21.9c0 2.2.3 4.2.7 6.1 2.7 10.4 11.7 17.5 22.4 17.5 15.8 0 25-12.9 25-31.8 0-16.5-8.7-30.6-24.5-30.6-10.2 0-19.7 7.3-22.6 18.5-.5 1.9-1 4.1-1 6.1v14.2zm78.5-87.2h15v51.3h.3c2.4-4.2 6.1-8 10.7-10.5 4.4-2.5 9.7-4.2 15.3-4.2 11 0 28.7 6.8 28.7 35.2v48.9h-15v-47.2c0-13.3-4.9-24.5-19-24.5-9.7 0-17.3 6.8-20 15-.8 2-1 4.2-1 7.1v49.6h-15V41.2zM330 123.5c.3 20.2 13.3 28.5 28.2 28.5 10.7 0 17.2-1.9 22.8-4.2l2.5 10.7c-5.3 2.4-14.3 5.1-27.4 5.1-25.3 0-40.4-16.7-40.4-41.5s14.6-44.3 38.6-44.3c26.8 0 34 23.6 34 38.7 0 3.1-.3 5.4-.5 7H330zm43.9-10.7c.2-9.5-3.9-24.3-20.7-24.3-15.1 0-21.7 13.9-22.9 24.3h43.6zm29.5-10.9c0-8.5-.2-15.5-.7-22.3H416l.8 13.6h.3c4.1-7.8 13.6-15.5 27.2-15.5 11.4 0 29.1 6.8 29.1 35v49.1h-15v-47.4c0-13.3-4.9-24.3-19-24.3-9.9 0-17.5 7-20 15.3-.7 1.9-1 4.4-1 7v49.4h-15v-59.9zM511 56.5c.2 5.1-3.6 9.2-9.5 9.2-5.3 0-9-4.1-9-9.2 0-5.3 3.9-9.3 9.3-9.3 5.6 0 9.2 4.1 9.2 9.3zm-16.7 105.4V79.6h15v82.2h-15zm43.4-82.3l11.7 17.7c3.1 4.6 5.6 8.8 8.3 13.4h.5c2.7-4.9 5.4-9.2 8.2-13.6L578 79.6h16.1l-28 39.8 28.9 42.5h-17l-12.1-18.5c-3.2-4.8-5.9-9.3-8.8-14.3h-.3c-2.7 4.9-5.6 9.3-8.7 14.3l-11.9 18.5h-16.5l29.2-42L521 79.6h16.7zM260.4 51s16.4 3.8 19.1 16.9c0 0-5-.9-4.5-.2.6.8 6 4.3 5.1 12.5 0 0-4.4-6.2-4-4.5.3 1.1 2.6 8.2-.6 12.2-2.1 2.7-10.7 5.3-9.9 10.7.8 5.4 6.8 12.7-3.3 25.9 0 0-7.4 9-18.1 11.6 0 0-1 3.1 2.5 10s3.3 10.3 3.8 12.3c.3 1.4 3.5-12.5 1.3-16.9 0 0 3.1 1.7 2.2 6.9-.6 3.6 1.6-5 6.3-13 5.3-8.9 19.9-9.1 28.8-27.1 4.7-9.4 6.2-8.3 6.2-8.3s-1.7-1.4-6.4-.6c-2.4.4 3.4-18.6 8.3-23.1 0 0-3.5-.4-5.6 2.6 0 0 .3-3.7-2.2-8.4-1.8-3.4-1.3-8.7.2-14.2 0 0-4.6 2.2-4.9 11.9 0 0-2.6-19.3-24.3-17.2z"/><path d="M258.1 85.2s-4-.3-5.3 4.1-4.6 1.1-4.6 1.1.8 4.1 4.6 4.6c.9.1 6.3 2.8 5.7 6.2-.6 3.4-3 6.7-3 6.7s-.7-9.3-10.9-12.5c-10.2-3.2-15.2-5.9-15.1-13.5 0 0-1.7 2.7-1.1 4.8 0 0-6.9-5-6.3-15s1.9-10.6 1.9-10.6-9.1 4.6-8.4 14.6c.7 11 2.8 11.4 2.8 11.4s-7.2-5.6-6.3-15c0 0-5.2 7.3.3 16.5s6.1 9.3 6.1 9.3-5.1-2.2-8.5-8.4c0 0-3.9 12 18.3 20.8 0 0-11.9-.8-18.1-9.8 0 0 1.7 13.2 12.4 17 9.2 3.3 13.3 2.4 16.3 7.7 3 5.3 5.2 10 5.9 9.9s13-3.1 20.5-17c4.1-7.6 1.5-17.6-4.9-24.8 0 0-1.7-1.6.7-4.5 2.5-3 .7-3.1 2-4.6 1.3-1.5 3.2-2.5 3.2-2.5s-5.8-.6-6.2 1-2 2.5-2 2.5zm-2.7 63.4s.1 4.2-1.6 7c-1.7 2.8-3.2 7.9 1.6 11.8 0 0-1.6-5.3.6-9.4s-.6-9.4-.6-9.4z"/><path class="st1" d="M247.9 159.4c-24.2-3.5-42.9-24.4-42.9-49.6 0-5.3.8-10.3 2.3-15.1m89.9-12.1c5.1 7.8 8 17.2 8 27.2 0 26.8-21.1 48.7-47.6 50m-30.4-91.5c8-5.4 17.6-8.6 28-8.6 2.8 0 5.5.2 8.2.7 2.5.4 4.9 1 7.3 1.8"/></svg>